name rise32.9588peak41.5061fall63.4684.mot
datacolumns 19
datarows 27
range 2.82332400000000 2.86665300000000
endheader
time	ground_force1_vx	ground_force1_vy	ground_force1_vz	ground_force1_px	ground_force1_py	ground_force1_pz	ground_force2_vx	ground_force2_vy	ground_force2_vz	ground_force2_px	ground_force2_py	ground_force2_pz	ground_torque1_x	ground_torque1_y	ground_torque1_z	ground_torque2_x	ground_torque2_y	ground_torque2_z	
2.82332400000000	12.92955000000000	708.54901400000006	43.70195700000000	0.18905000000000	0.00000000000000	0.10282600000000	0.00000000000000	0.00000000000000	0.00000000000000	0.00000000000000	0.00000000000000	0.00000000000000	0.00000000000000	13.72169400000000	0.00000000000000	0.00000000000000	0.00000000000000	0.00000000000000	
2.82498800000000	12.78276300000000	708.95261900000003	43.70941500000000	0.18839400000000	0.00000000000000	0.10277400000000	0.00000000000000	0.00000000000000	0.00000000000000	0.00000000000000	0.00000000000000	0.00000000000000	0.00000000000000	13.72615700000000	0.00000000000000	0.00000000000000	0.00000000000000	0.00000000000000	
2.82665500000000	12.62499400000000	709.40512500000000	43.72200600000000	0.18772100000000	0.00000000000000	0.10272100000000	0.00000000000000	0.00000000000000	0.00000000000000	0.00000000000000	0.00000000000000	0.00000000000000	0.00000000000000	13.73419900000000	0.00000000000000	0.00000000000000	0.00000000000000	0.00000000000000	
2.82832300000000	12.45549400000000	709.90461100000005	43.73959000000000	0.18703100000000	0.00000000000000	0.10266600000000	0.00000000000000	0.00000000000000	0.00000000000000	0.00000000000000	0.00000000000000	0.00000000000000	0.00000000000000	13.74583800000000	0.00000000000000	0.00000000000000	0.00000000000000	0.00000000000000	
2.82998800000000	12.27355500000000	710.44917999999996	43.76201900000000	0.18632300000000	0.00000000000000	0.10261000000000	0.00000000000000	0.00000000000000	0.00000000000000	0.00000000000000	0.00000000000000	0.00000000000000	0.00000000000000	13.76108900000000	0.00000000000000	0.00000000000000	0.00000000000000	0.00000000000000	
2.83165600000000	12.07850800000000	711.03697499999998	43.78913700000000	0.18559700000000	0.00000000000000	0.10255300000000	0.00000000000000	0.00000000000000	0.00000000000000	0.00000000000000	0.00000000000000	0.00000000000000	0.00000000000000	13.77995900000000	0.00000000000000	0.00000000000000	0.00000000000000	0.00000000000000	
2.83332200000000	11.86972300000000	711.66618300000005	43.82078200000000	0.18485200000000	0.00000000000000	0.10249400000000	0.00000000000000	0.00000000000000	0.00000000000000	0.00000000000000	0.00000000000000	0.00000000000000	0.00000000000000	13.80244900000000	0.00000000000000	0.00000000000000	0.00000000000000	0.00000000000000	
2.83499700000000	11.64661800000000	712.33504600000003	43.85678600000000	0.18408900000000	0.00000000000000	0.10243500000000	0.00000000000000	0.00000000000000	0.00000000000000	0.00000000000000	0.00000000000000	0.00000000000000	0.00000000000000	13.82855300000000	0.00000000000000	0.00000000000000	0.00000000000000	0.00000000000000	
2.83665500000000	11.40865600000000	713.04186900000002	43.89697700000000	0.18330600000000	0.00000000000000	0.10237400000000	0.00000000000000	0.00000000000000	0.00000000000000	0.00000000000000	0.00000000000000	0.00000000000000	0.00000000000000	13.85826100000000	0.00000000000000	0.00000000000000	0.00000000000000	0.00000000000000	
2.83832000000000	11.15534700000000	713.78502500000002	43.94118000000000	0.18250400000000	0.00000000000000	0.10231300000000	0.00000000000000	0.00000000000000	0.00000000000000	0.00000000000000	0.00000000000000	0.00000000000000	0.00000000000000	13.89155500000000	0.00000000000000	0.00000000000000	0.00000000000000	0.00000000000000	
2.83999300000000	10.88625200000000	714.56296199999997	43.98922000000000	0.18168300000000	0.00000000000000	0.10225100000000	0.00000000000000	0.00000000000000	0.00000000000000	0.00000000000000	0.00000000000000	0.00000000000000	0.00000000000000	13.92841000000000	0.00000000000000	0.00000000000000	0.00000000000000	0.00000000000000	
2.84165600000000	10.60098100000000	715.37420899999995	44.04092100000000	0.18084400000000	0.00000000000000	0.10218800000000	0.00000000000000	0.00000000000000	0.00000000000000	0.00000000000000	0.00000000000000	0.00000000000000	0.00000000000000	13.96879600000000	0.00000000000000	0.00000000000000	0.00000000000000	0.00000000000000	
2.84332700000000	10.29919500000000	716.21738300000004	44.09610500000000	0.17998600000000	0.00000000000000	0.10212400000000	0.00000000000000	0.00000000000000	0.00000000000000	0.00000000000000	0.00000000000000	0.00000000000000	0.00000000000000	14.01267600000000	0.00000000000000	0.00000000000000	0.00000000000000	0.00000000000000	
2.84499400000000	9.98060900000000	717.09118899999999	44.15460100000000	0.17911100000000	0.00000000000000	0.10206000000000	0.00000000000000	0.00000000000000	0.00000000000000	0.00000000000000	0.00000000000000	0.00000000000000	0.00000000000000	14.06000800000000	0.00000000000000	0.00000000000000	0.00000000000000	0.00000000000000	
2.84665800000000	9.64499000000000	717.99442299999998	44.21623800000000	0.17821700000000	0.00000000000000	0.10199600000000	0.00000000000000	0.00000000000000	0.00000000000000	0.00000000000000	0.00000000000000	0.00000000000000	0.00000000000000	14.11074100000000	0.00000000000000	0.00000000000000	0.00000000000000	0.00000000000000	
2.84833500000000	9.29215800000000	718.92597999999998	44.28084900000000	0.17730700000000	0.00000000000000	0.10193100000000	0.00000000000000	0.00000000000000	0.00000000000000	0.00000000000000	0.00000000000000	0.00000000000000	0.00000000000000	14.16482100000000	0.00000000000000	0.00000000000000	0.00000000000000	0.00000000000000	
2.84998600000000	8.92198700000000	719.88485000000003	44.34827500000000	0.17638000000000	0.00000000000000	0.10186600000000	0.00000000000000	0.00000000000000	0.00000000000000	0.00000000000000	0.00000000000000	0.00000000000000	0.00000000000000	14.22218600000000	0.00000000000000	0.00000000000000	0.00000000000000	0.00000000000000	
2.85166100000000	8.53440400000000	720.87011700000005	44.41836100000000	0.17543800000000	0.00000000000000	0.10180100000000	0.00000000000000	0.00000000000000	0.00000000000000	0.00000000000000	0.00000000000000	0.00000000000000	0.00000000000000	14.28276900000000	0.00000000000000	0.00000000000000	0.00000000000000	0.00000000000000	
2.85332100000000	8.12938700000000	721.88096700000006	44.49096100000000	0.17448000000000	0.00000000000000	0.10173500000000	0.00000000000000	0.00000000000000	0.00000000000000	0.00000000000000	0.00000000000000	0.00000000000000	0.00000000000000	14.34649600000000	0.00000000000000	0.00000000000000	0.00000000000000	0.00000000000000	
2.85499100000000	7.70697100000000	722.91667900000004	44.56593600000000	0.17350900000000	0.00000000000000	0.10167000000000	0.00000000000000	0.00000000000000	0.00000000000000	0.00000000000000	0.00000000000000	0.00000000000000	0.00000000000000	14.41328700000000	0.00000000000000	0.00000000000000	0.00000000000000	0.00000000000000	
2.85665400000000	7.26723800000000	723.97662500000001	44.64315700000000	0.17252300000000	0.00000000000000	0.10160400000000	0.00000000000000	0.00000000000000	0.00000000000000	0.00000000000000	0.00000000000000	0.00000000000000	0.00000000000000	14.48305900000000	0.00000000000000	0.00000000000000	0.00000000000000	0.00000000000000	
2.85832400000000	6.81032600000000	725.06027200000005	44.72250600000000	0.17152600000000	0.00000000000000	0.10153800000000	0.00000000000000	0.00000000000000	0.00000000000000	0.00000000000000	0.00000000000000	0.00000000000000	0.00000000000000	14.55571900000000	0.00000000000000	0.00000000000000	0.00000000000000	0.00000000000000	
2.85999400000000	6.33641800000000	726.16717200000005	44.80387400000000	0.17051600000000	0.00000000000000	0.10147300000000	0.00000000000000	0.00000000000000	0.00000000000000	0.00000000000000	0.00000000000000	0.00000000000000	0.00000000000000	14.63117200000000	0.00000000000000	0.00000000000000	0.00000000000000	0.00000000000000	
2.86165700000000	5.84575200000000	727.29696300000001	44.88716500000000	0.16949600000000	0.00000000000000	0.10140700000000	0.00000000000000	0.00000000000000	0.00000000000000	0.00000000000000	0.00000000000000	0.00000000000000	0.00000000000000	14.70931600000000	0.00000000000000	0.00000000000000	0.00000000000000	0.00000000000000	
2.86332300000000	5.33860800000000	728.44935999999996	44.97229200000000	0.16846500000000	0.00000000000000	0.10134200000000	0.00000000000000	0.00000000000000	0.00000000000000	0.00000000000000	0.00000000000000	0.00000000000000	0.00000000000000	14.79004300000000	0.00000000000000	0.00000000000000	0.00000000000000	0.00000000000000	
2.86498900000000	4.81531700000000	729.62415399999998	45.05918300000000	0.16742600000000	0.00000000000000	0.10127700000000	0.00000000000000	0.00000000000000	0.00000000000000	0.00000000000000	0.00000000000000	0.00000000000000	0.00000000000000	14.87324200000000	0.00000000000000	0.00000000000000	0.00000000000000	0.00000000000000	
2.86665300000000	4.27625200000000	730.82120299999997	45.14777900000000	0.16637800000000	0.00000000000000	0.10121200000000	0.00000000000000	0.00000000000000	0.00000000000000	0.00000000000000	0.00000000000000	0.00000000000000	0.00000000000000	14.95879300000000	0.00000000000000	0.00000000000000	0.00000000000000	0.00000000000000	
